<svg width="130" height="37" viewBox="0 0 130 37" fill="none" xmlns="http://www.w3.org/2000/svg">
<path d="M33.7481 0H39.7189V36.8633H33.7481V0Z" fill="white"/>
<path d="M60.487 25.1813C60.487 30.8925 55.8142 31.4117 54.2566 31.4117C50.6222 31.4117 50.103 28.0369 50.103 26.2197V11.9417H44.1321V25.9601C44.1321 29.3349 45.1705 32.4501 47.2473 34.2673C49.0646 36.0845 51.401 36.8633 54.2566 36.8633C56.3334 36.8633 58.9294 36.3441 60.487 34.7865V36.8633H66.4578V11.9417H60.487V25.1813Z" fill="white"/>
<path d="M78.1398 2.85559H72.1689V11.9416H67.7557V17.6528H72.1689V36.8633H78.1398V17.6528H82.553V11.9416H78.1398V2.85559Z" fill="white"/>
<path d="M101.244 29.3348C99.9463 30.3732 98.1291 31.152 96.3119 31.152C92.1583 31.152 89.3026 28.0368 89.3026 23.8832C89.3026 19.7296 92.1583 16.874 96.3119 16.874C98.1291 16.874 99.9463 17.3932 101.244 18.6912L102.023 19.47L106.177 15.576L105.138 14.7972C102.802 12.7204 99.6867 11.4224 96.3119 11.4224C89.043 11.4224 83.5914 16.874 83.5914 24.1428C83.5914 31.4116 89.043 36.8632 96.3119 36.8632C99.6867 36.8632 102.802 35.5652 105.138 33.4884L106.177 32.7096L102.023 28.556L101.244 29.3348Z" fill="white"/>
<path d="M127.204 14.0184C125.387 12.2012 123.57 11.4224 120.714 11.4224C118.638 11.4224 116.561 11.9416 115.003 13.4992V0H109.032V36.8633H115.003V23.1045C115.003 17.3932 118.897 16.874 120.455 16.874C124.089 16.874 123.83 20.2489 123.83 22.0661V36.6037H129.8V22.3257C129.8 18.9509 129.022 15.8356 127.204 14.0184Z" fill="white"/>
<path d="M96.0522 28.2971C98.3462 28.2971 100.206 26.4375 100.206 24.1435C100.206 21.8495 98.3462 19.9899 96.0522 19.9899C93.7583 19.9899 91.8986 21.8495 91.8986 24.1435C91.8986 26.4375 93.7583 28.2971 96.0522 28.2971Z" fill="#EF4335"/>
<path d="M25.4409 27.7777C23.3641 29.8545 20.2489 31.1525 16.874 31.1525C10.384 31.1525 5.71122 25.9605 5.71122 18.9513C5.71122 11.942 10.384 6.75004 17.1336 6.75004C20.2488 6.75004 23.3641 8.04804 25.7005 10.3844L26.4793 11.1632L30.3733 7.26924L29.5945 6.49043C26.2197 3.11562 21.8065 1.29842 17.1336 1.29842C7.26882 1.03882 0 8.82684 0 18.9513C0 29.0757 7.26882 36.8637 16.874 36.8637C21.5469 36.8637 26.2197 35.0465 29.3349 31.6717L30.1137 30.8929L26.2197 26.9989L25.4409 27.7777Z" fill="white"/>
</svg>
