<svg width="225" height="43" viewBox="0 0 225 43" fill="none" xmlns="http://www.w3.org/2000/svg">
<path fill-rule="evenodd" clip-rule="evenodd" d="M20.0493 0L19.527 7.66566H15.6913L15.3405 2.89677H9.24018V14.3086H11.8557C12.0506 13.4573 12.2065 12.606 12.5535 11.7527H15.3405V19.5879H12.7289L12.0311 17.0321H9.41559V29.1257H15.5159L16.0383 23.8445L20.2208 24.0349L20.5716 32.0415H0.526228V29.3181L3.31329 28.8077V3.23577L0 2.72536V0.0019071H20.0454L20.0493 0ZM90.7978 42.7525C90.7978 41.9012 90.9927 41.2194 90.9927 40.5375L93.0839 40.0271V12.7926C92.2127 12.6022 91.515 12.6022 90.6438 12.4498V10.2348L97.2704 9.38353C97.4653 10.2348 97.7927 11.0862 97.9681 11.768C98.163 11.768 98.163 11.5775 98.3189 11.5775C99.8879 9.70349 101.979 9.19308 104.419 9.36258C107.382 9.7054 109.126 11.5775 109.824 14.1315C110.175 15.3237 110.522 16.5159 110.522 17.7082C110.716 20.264 110.716 22.818 110.327 25.2024C110.132 26.0537 109.804 27.0765 109.455 27.9259C108.235 30.4817 106.142 32.0129 103.355 32.1844C101.786 32.3748 100.393 32.1844 98.9972 31.5025H98.6463V40.0405L100.913 40.5509C100.913 41.2327 100.718 41.9126 100.718 42.7658H90.7822L90.7978 42.7525ZM98.6424 28.6153C100.385 29.2971 102.151 29.4666 103.872 28.8058C104.183 28.6715 104.432 28.4283 104.569 28.1239C104.764 27.2726 105.092 26.4213 105.092 25.5681C105.442 23.0122 105.442 20.2869 105.287 17.7329C105.282 16.8011 105.105 15.8777 104.764 15.0076C104.242 13.1335 102.846 12.4517 100.929 12.7926H100.578C99.3577 12.9831 98.66 13.8153 98.66 15.0076V28.6134L98.6424 28.6153ZM164.883 29.1295L167.15 29.6399C167.15 30.4912 167.15 31.1731 166.955 32.0244H159.285V16.6931C159.285 16.0112 159.09 15.3313 158.935 14.6495C158.74 13.7982 158.063 13.4573 157.192 13.2878C156.321 13.1183 155.623 13.0973 154.925 13.4782C154.228 13.8591 153.705 14.1601 153.705 15.0114V29.1486L155.972 29.659C155.972 30.3408 155.777 31.1921 155.777 32.0434H146.017V29.6628L148.283 29.1524V12.9697C147.412 12.7793 146.714 12.7793 145.843 12.6269V10.2158L152.275 9.36449L152.797 11.408C153.319 11.0652 153.844 10.5567 154.366 10.2158C156.457 8.85408 158.898 8.68267 161.164 9.53399C163.082 10.2158 164.127 11.7489 164.477 13.7925C164.672 14.3029 164.672 14.9847 164.672 15.4951V28.2706C164.799 28.5367 164.859 28.8285 164.848 29.1219L164.883 29.1295ZM29.9658 29.32L32.2325 29.8304C32.2325 30.6817 32.0376 31.3635 32.0376 32.2148H22.1016C22.1016 31.533 22.1016 30.6817 22.2965 29.8304L24.3878 29.32C24.5827 28.8096 24.5827 13.9886 24.3878 13.1373C23.69 12.9469 22.8188 12.9469 21.9476 12.7945V10.3872L28.3793 9.5359L28.9016 11.5794L29.424 11.069C31.5152 9.36639 33.9554 8.85408 36.5709 9.5359C38.8376 10.0463 40.0791 11.5794 40.58 13.7944C40.7749 14.3048 40.7749 14.9866 40.7749 15.497V29.1238L43.0416 29.6342V32.0415H35.3723V17.2244C35.3723 16.714 35.3723 16.0322 35.1774 15.5218C34.9825 14.1601 34.1308 13.4782 32.9107 13.3068C31.8641 13.1164 30.9929 13.3068 30.2952 14.1581C29.9443 14.501 29.9443 14.84 29.9443 15.3504V29.3181L29.9658 29.32ZM200.113 12.4346C199.242 12.4346 198.544 12.2441 197.673 12.2441V10.2006L205.169 9.34925C205.519 10.2006 205.866 11.0519 205.866 12.0727V29.2762L208.133 29.7866C208.133 30.6379 207.938 31.3197 207.938 32.171H201.506C201.312 31.6606 201.156 30.9788 200.984 30.297C200.789 30.4874 200.633 30.6398 200.462 30.6398C197.846 33.0242 194.361 32.6833 192.095 31.6625C190.352 30.8112 189.479 29.4476 189.132 27.5754C188.937 26.8936 188.937 26.3832 188.937 25.7014V12.585C188.066 12.3946 187.195 12.3946 186.497 12.2422V10.2158L193.818 9.36449C194.013 10.2158 194.34 10.8976 194.34 11.7489V24.6939C194.34 25.2043 194.34 25.8861 194.535 26.3965C194.73 27.9297 195.755 28.9524 197.322 28.9524C197.844 28.9524 198.542 28.7619 199.064 28.7619C199.587 28.5715 200.458 27.5697 200.458 27.0593V12.9202C200.107 12.7298 200.107 12.5774 200.107 12.4098L200.113 12.4346ZM78.4626 22.1419C78.4626 24.0159 78.8134 25.57 79.6826 27.0822C80.5538 28.2744 81.7739 28.9562 83.3429 29.1257C84.9118 29.1257 86.3053 28.7829 87.7008 28.2744C87.8957 28.2744 88.0516 28.0839 88.3985 28.0839C88.7494 28.7658 88.9209 29.4457 89.2697 30.1275C88.9189 30.4703 88.3985 30.6379 88.0497 30.9788C85.2626 32.5119 82.3001 33.0223 79.3338 32.0015C76.7182 31.3197 75.1512 29.6171 73.9292 27.2326C72.7091 24.6768 72.3603 21.9514 72.7091 19.2261C72.904 17.5234 73.2315 15.7979 73.9292 14.2857C75.1493 11.7299 77.0476 10.0273 79.8542 9.51685C82.6607 9.00644 85.0833 9.3264 87.1746 11.2195C88.3946 12.4117 89.0924 13.9429 89.6147 15.478C90.137 17.1806 90.3125 18.7156 90.3125 20.4183C90.3125 20.9287 89.9616 21.441 89.7901 22.1209H78.4606L78.4626 22.1419ZM85.2607 19.247C85.2607 18.5652 85.0658 18.0548 85.0658 17.5444C84.8709 16.1826 84.715 14.9885 84.0192 13.7963C83.3214 12.4346 82.1013 12.0937 80.7059 12.6041C80.1835 12.7945 79.8347 13.1145 79.4858 13.6268C78.7881 15.5008 78.4392 17.3749 78.2657 19.2451V19.7555L85.2373 19.2451L85.2607 19.247ZM185.147 22.1419L173.817 22.3323C173.622 23.1836 173.817 23.8654 174.012 24.5473C174.191 25.6661 174.672 26.7181 175.405 27.5945C176.277 28.6172 177.323 29.1276 178.719 29.1276C180.114 29.1276 181.506 28.9372 182.901 28.4458C183.252 28.2554 183.424 28.2553 183.773 28.103C184.123 28.7848 184.295 29.4647 184.644 30.1465C184.449 30.1465 184.449 30.337 184.293 30.337C181.853 32.0396 179.237 32.5519 176.275 32.3805C172.767 32.0377 170.35 29.9961 169.128 26.7622C167.385 22.6751 167.559 18.5861 169.323 14.4972C170.369 11.9413 172.285 10.0692 175.248 9.55685C177.514 9.04644 179.779 9.21403 181.679 10.5796C183.073 11.6023 183.946 12.964 184.642 14.3276C185.34 16.2017 185.688 18.4147 185.688 20.4602C185.688 20.9706 185.338 21.4829 185.166 22.1628L185.147 22.1419ZM180.789 19.247C180.789 17.7139 180.594 16.3521 180.091 14.9885C179.896 14.3067 179.569 13.6268 179.044 13.1145C178.173 11.9222 175.384 12.2632 175.035 13.7963C174.684 14.9885 174.337 16.1807 174.164 17.5444C173.969 18.2262 173.969 18.9061 173.969 19.7593L180.767 19.2489L180.789 19.247ZM145.052 22.1419L133.722 22.3323C133.722 24.3759 134.073 26.0804 135.291 27.6135C136.163 28.6363 137.209 29.1467 138.41 29.1467C139.803 29.1467 141.372 28.9562 142.592 28.4648C142.943 28.2744 143.115 28.2744 143.463 28.122C143.814 28.8038 143.986 29.4838 144.335 30.1656C143.984 30.356 143.812 30.5084 143.637 30.676C141.141 32.1873 138.157 32.734 135.27 32.2091C132.483 31.6987 130.563 29.9942 129.345 27.6097C128.125 25.0539 127.776 22.4999 127.951 19.7746C128.146 17.9005 128.474 16.1979 129.171 14.4933C130.043 12.4498 131.438 10.9167 133.529 10.0654C135.97 9.04263 138.41 9.04263 140.85 10.2558C142.419 11.1071 143.465 12.4707 144.163 14.0039C145.034 16.0474 145.383 18.2624 145.383 20.4792C145.578 20.9896 145.188 21.5019 145.032 22.1819L145.052 22.1419ZM140.694 19.247C140.694 18.5652 140.499 17.8853 140.499 17.2035C140.304 16.0112 140.148 14.819 139.452 13.7753C138.581 12.4136 137.361 11.9013 135.944 12.5831C135.593 12.7736 135.246 12.9259 135.073 13.4344C134.375 14.7962 134.026 16.3293 133.853 17.8624C133.853 18.3728 133.658 18.8851 133.658 19.5651C135.925 19.5651 138.189 19.3746 140.63 19.2222L140.694 19.247ZM63.6249 9.5378L64.1472 11.5813C64.498 11.3909 64.6695 11.2385 65.0184 11.0709C66.5874 10.2196 68.3317 9.70921 70.0741 9.5378C70.9453 9.34735 71.643 9.72825 72.1654 10.3891L71.4676 16.3502C70.2476 16.3502 69.0275 16.1598 67.8074 16.1598C67.6125 15.1371 67.4566 14.1162 67.4566 12.9221C66.5854 12.9221 65.8877 13.2649 65.1899 13.7734V29.1048L67.4566 29.6152C67.4566 30.297 67.4566 31.1483 67.2617 31.8301H57.5245V29.6152L59.6158 29.1048V12.9393C58.7446 12.7488 58.0469 12.7488 57.1757 12.5964V10.2158C59.2669 10.2158 61.3582 9.87299 63.6073 9.53399L63.6249 9.5378ZM209.176 32.0415C209.176 31.1902 209.176 30.5084 209.371 29.8266L211.462 29.3162V13.1335C210.764 12.9431 209.893 12.9431 209.022 12.7907V10.3872L215.648 9.5359L216.171 11.4099L218.958 10.2177C220.004 9.8749 220.876 9.7073 221.92 9.5359C222.791 9.34544 223.489 9.53589 224.011 10.3872L223.314 16.3483C222.094 16.3483 220.874 16.1579 219.653 16.1579C219.459 15.1352 219.303 13.9429 219.303 12.9202L217.036 13.7715V29.2743L219.303 29.7847C219.303 30.4665 219.108 31.3178 219.108 31.9996H209.172L209.176 32.0415ZM122.523 12.945L120.257 13.7963V29.299L122.523 29.8094C122.523 30.6607 122.329 31.3426 122.329 32.0244H112.568V29.8094L114.659 29.299V13.1164C113.788 12.9259 113.09 12.9259 112.219 12.7736V10.3872L118.846 9.5359L119.368 11.4099L121.286 10.3872C122.506 9.8768 123.726 9.5359 125.121 9.36449C126.168 9.36449 126.864 9.7073 127.388 10.3872L126.69 16.3483C125.47 16.3483 124.25 16.1579 123.03 16.1579L122.508 12.9202L122.523 12.945ZM51.0578 5.27931V9.87871H55.0883C54.8934 10.9014 54.8934 11.7527 54.8934 12.7736C53.6733 12.7736 52.4533 12.964 51.2332 13.1164V27.5945C51.4281 28.4458 51.9309 29.1276 52.9756 29.1276H55.2423C55.2423 29.9789 55.4372 30.6607 55.4372 31.5121C54.9148 31.8549 54.2171 32.0225 53.5194 32.1939C52.1258 32.5367 50.7323 32.5367 49.3368 32.3843C47.2455 32.0415 45.8286 30.6817 45.5012 28.4667V13.1354C44.63 12.945 43.7588 12.7926 42.8856 12.7926C42.8856 11.9413 42.8856 10.9186 43.0805 10.0692C44.1272 10.0692 44.9984 9.87871 46.043 9.87871L47.2631 5.62022L51.0987 5.27741L51.0578 5.27931Z" fill="white"/>
</svg>
